<?xml version="1.0" encoding="utf-8"?>
<!-- Generator: Adobe Illustrator 24.3.0, SVG Export Plug-In . SVG Version: 6.00 Build 0)  -->
<svg version="1.1" id="Layer_1" xmlns="http://www.w3.org/2000/svg" xmlns:xlink="http://www.w3.org/1999/xlink" x="0px" y="0px"
	 viewBox="0 0 200 200" enable-background="new 0 0 200 200" xml:space="preserve">
<path fill="#282828" d="M98.732,127.098c-3.2,0-6.4-1.2-8.9-3.3c-2.8-2.4-4.5-5.7-4.8-9.3c-0.3-3.6,0.9-7.2,3.2-10
	c4.4-5.2,24.5-12.2,26.8-13c0.7-0.2,1.4-0.1,1.9,0.4s0.8,1.2,0.7,1.9c-0.4,2.4-4.1,23.3-8.5,28.5
	C106.532,125.398,102.732,127.098,98.732,127.098z M113.132,96.598c-8.4,3.1-19.3,7.7-21.8,10.6c-1.7,2-2.5,4.5-2.3,7.1
	c0.2,2.6,1.4,4.9,3.4,6.6c3.9,3.3,10.3,2.8,13.6-1.1C108.532,116.898,111.432,105.198,113.132,96.598z"/>
<path fill="#282828" d="M137.232,138.998h-73.8c-0.6,0-1.3-0.3-1.6-0.8c-6.1-8.5-9.5-18.9-9.5-29.1c0-26.9,21.5-48.7,48-48.7
	s48,21.7,48,48.5c0,10.4-3.4,20.8-9.4,29.4C138.532,138.798,137.932,138.998,137.232,138.998z M64.432,134.998h71.8
	c5.2-8,8.1-17,8.1-26.2c0-24.5-19.7-44.4-44-44.4s-44,20-44,44.6C56.332,118.098,59.232,126.998,64.432,134.998z"/>
<path fill="#282828" d="M68.632,107.998c-1.1,0-2-0.9-2-2c0-18.8,15.1-34,33.7-34s33.7,15.2,33.7,33.9c0,1.1-0.9,2-2,2
	c-1.1,0-2-0.9-2-2c0-16.5-13.3-29.9-29.7-29.9s-29.7,13.4-29.7,30C70.632,107.098,69.732,107.998,68.632,107.998z"/>
</svg>
